<svg width="128" height="128" viewBox="0 0 128 128" fill="none" xmlns="http://www.w3.org/2000/svg">
<path fill-rule="evenodd" clip-rule="evenodd" d="M64 5.09998C30.7 5.09998 3.59998 32.1 3.59998 65.5C3.59998 92.2 20.9 114.8 44.9 122.8C47.9 123.4 49 121.5 49 119.9C49 118.5 48.9 113.7 48.9 108.7C32.1 112.4 28.6 101.6 28.6 101.6C25.9 94.6 21.9 92.8 21.9 92.8C16.4 89.1 22.3 89.1 22.3 89.1C28.4 89.5 31.6 95.3 31.6 95.3C37 104.5 45.7 101.9 49.2 100.3C49.7 96.4 51.3 93.7 53 92.2C39.6 90.7 25.5 85.5 25.5 62.4C25.5 55.8 27.9 50.4 31.7 46.2C31.1 44.7 29 38.5 32.3 30.2C32.3 30.2 37.4 28.6 48.9 36.4C53.7 35.1 58.9 34.4 64 34.4C69.1 34.4 74.3 35.1 79.1 36.4C90.6 28.6 95.7 30.2 95.7 30.2C99 38.5 96.9 44.7 96.3 46.2C100.2 50.4 102.5 55.8 102.5 62.4C102.5 85.6 88.4 90.7 74.9 92.2C77.1 94.1 79 97.8 79 103.4C79 111.5 78.9 118 78.9 120C78.9 121.6 80 123.5 83 122.9C107 114.9 124.3 92.3 124.3 65.6C124.4 32.1 97.3 5.09998 64 5.09998Z" fill="#88A8BA"/>
<path d="M26.5 91.8C26.4 92.1 25.9 92.1999 25.5 91.9999C25.1 91.7999 24.8 91.3999 25 91.0999C25.1 90.7999 25.6 90.7 26 90.9C26.4 91.1 26.6 91.5 26.5 91.8ZM28.9 94.4999C28.6 94.7999 28 94.5999 27.7 94.1999C27.3 93.7999 27.2 93.2 27.5 92.9C27.8 92.6 28.3 92.7999 28.7 93.1999C29.2 93.6999 29.2 94.2999 28.9 94.4999ZM31.3 97.9999C30.9 98.2999 30.3 97.9999 29.9 97.4999C29.5 96.9999 29.5 96.2999 29.9 96.0999C30.3 95.7999 30.9 96.0999 31.3 96.5999C31.7 97.0999 31.7 97.6999 31.3 97.9999ZM34.6 101.4C34.3 101.8 33.6 101.7 33 101.2C32.5 100.7 32.3 99.9999 32.7 99.6999C33 99.2999 33.7 99.4 34.3 99.9C34.8 100.3 34.9 101 34.6 101.4ZM39.1 103.3C39 103.8 38.3 104 37.6 103.8C36.9 103.6 36.5 103 36.6 102.6C36.7 102.1 37.4 101.9 38.1 102.1C38.8 102.3 39.2 102.8 39.1 103.3ZM44 103.7C44 104.2 43.4 104.6 42.7 104.6C42 104.6 41.4 104.2 41.4 103.7C41.4 103.2 42 102.8 42.7 102.8C43.4 102.8 44 103.2 44 103.7ZM48.6 102.9C48.7 103.4 48.2 103.9 47.5 104C46.8 104.1 46.2 103.8 46.1 103.3C46 102.8 46.5 102.3 47.2 102.2C47.9 102.1 48.5 102.4 48.6 102.9Z" fill="#88A8BA"/>
</svg>
