<svg xmlns="http://www.w3.org/2000/svg" width="34" height="34" viewBox="0 0 34 34">
  <g id="icon-github" transform="translate(1 1)">
    <rect id="Rectangle_1814" data-name="Rectangle 1814" width="34" height="34" transform="translate(-1 -1)" fill="red" opacity="0"/>
    <ellipse id="Ellipse_14" data-name="Ellipse 14" cx="14.949" cy="14.381" rx="14.949" ry="14.381" transform="translate(0.973 3.234)" fill="#fff"/>
    <path id="github-icon" d="M16,.5a15.951,15.951,0,0,0-5.059,31.093c.8.15,1.093-.344,1.093-.767,0-.379-.013-1.383-.02-2.713-4.45.962-5.389-2.141-5.389-2.141a4.235,4.235,0,0,0-1.78-2.334c-1.449-.989.112-.969.112-.969a3.351,3.351,0,0,1,2.45,1.644,3.416,3.416,0,0,0,4.659,1.327,3.4,3.4,0,0,1,1.013-2.134c-3.553-.4-7.287-1.771-7.287-7.884a6.145,6.145,0,0,1,1.646-4.281,5.659,5.659,0,0,1,.14-4.223s1.34-.428,4.4,1.636a15.121,15.121,0,0,1,8,0c3.04-2.063,4.379-1.636,4.379-1.636a5.816,5.816,0,0,1,.16,4.223,6.17,6.17,0,0,1,1.64,4.281c0,6.129-3.739,7.478-7.3,7.871a3.816,3.816,0,0,1,1.08,2.952c0,2.135-.02,3.851-.02,4.369,0,.418.28.917,1.1.758A15.931,15.931,0,0,0,16,.5Z" transform="translate(0 -0.5)" fill="#212121"/>
  </g>
</svg>
