<?xml version="1.0" encoding="utf-8"?>
<!-- Generator: Adobe Illustrator 26.2.1, SVG Export Plug-In . SVG Version: 6.00 Build 0)  -->
<svg version="1.1" xmlns="http://www.w3.org/2000/svg" xmlns:xlink="http://www.w3.org/1999/xlink" x="0px" y="0px"
	 viewBox="0 0 128 128" style="enable-background:new 0 0 128 128;" xml:space="preserve">
<style type="text/css">
	.st0{display:none;}
	.st1{display:inline;fill:#20D181;}
	.st2{display:inline;fill:#FFFFFF;stroke:#000000;stroke-miterlimit:10;}
	.st3{display:inline;}
	.st4{fill-rule:evenodd;clip-rule:evenodd;fill:#53C1DE;}
	.st5{fill:#53C1DE;}
	.st6{fill:#2489CA;}
	.st7{fill:#1070B3;}
	.st8{fill:#0877B9;}
	.st9{fill:#3C99D4;}
	.st10{fill:#001E36;}
	.st11{fill:#31A8FF;}
	.st12{fill:#CB3837;}
	.st13{fill:#330000;}
	.st14{fill:#FF9A00;}
	.st15{fill:#E44D26;}
	.st16{fill-rule:evenodd;clip-rule:evenodd;fill:#88A8BA;}
	.st17{fill:#88A8BA;}
	.st18{fill:#DE4C36;}
	.st19{fill:#CD6799;}
	.st20{fill:#BF0001;}
	.st21{fill:#1572B6;}
	.st22{fill:#470137;}
	.st23{fill:#FF61F6;}
	.st24{fill:#F0DB4F;}
	.st25{fill:#323330;}
	.st26{display:inline;fill:#0ACF83;}
	.st27{display:inline;fill:#A259FF;}
	.st28{display:inline;fill:#F24E1E;}
	.st29{display:inline;fill:#FF7262;}
	.st30{display:inline;fill:#1ABCFE;}
	.st31{fill:#44A8B3;}
</style>
<g id="Layer_1" class="st0">
	<path class="st1" d="M0,0h128v128H0V0z"/>
	<path class="st2" d="M0,0h128v128H0V0z"/>
</g>
<g id="Layer_15" class="st0">
	<g class="st3">
		<path class="st4" d="M101.1,43.3c2.4-9.5,5.4-27.2-5.2-33.1c-10.6-6-24.5,5.5-31.8,12.3c-7.3-6.8-21.5-18.1-32.2-12.1
			c-10.6,6-7.4,23.3-4.9,32.9C17,46,0,51.9,0,63.9S17,82.3,26.9,85c-2.5,9.6-5.6,26.7,5.1,32.7s24.9-5.1,32.3-12
			c7.4,6.9,21.1,18.1,31.7,12.1c10.7-6,7.9-23.4,5.4-33c9.6-2.7,26.6-9,26.6-20.9S110.9,46,101.1,43.3z M99.9,79.6
			c-1.6-5-3.8-10.3-6.5-15.7c2.6-5.3,4.7-10.6,6.2-15.5c7.2,2,22.9,6.6,22.9,15.5S107.5,77.5,99.9,79.6z M93.2,113.2
			c-7.9,4.5-19.8-6.2-25.2-11.3c3.6-3.8,7.2-8.3,10.7-13.2c6.2-0.5,12-1.4,17.3-2.6C97.9,92.9,101.2,108.7,93.2,113.2z M34.7,113.1
			c-7.9-4.4-4.3-19.7-2.5-26.8c5.2,1.1,11,1.9,17.3,2.4c3.5,4.8,7.3,9.3,11,13.2C55.8,106.3,42.6,117.6,34.7,113.1z M5.5,63.9
			c0-9,15.6-13.5,22.9-15.5c1.6,5.1,3.7,10.3,6.2,15.7C32,69.5,29.9,74.9,28.3,80C21.3,78,5.5,72.9,5.5,63.9z M34.6,14.9
			c8-4.5,20.4,6.4,25.7,11.3c-3.7,3.9-7.4,8.3-10.9,13.1c-6,0.5-11.8,1.4-17.1,2.6C30.2,34.2,26.6,19.4,34.6,14.9z M82.7,45.1
			c4.1,0.5,8,1.2,11.7,2c-1.1,3.4-2.5,7-4.1,10.7C87.9,53.5,85.4,49.2,82.7,45.1z M64.1,30.1c2.5,2.6,5,5.6,7.5,8.8
			c-5-0.2-10.1-0.2-15.1,0C59,35.7,61.5,32.7,64.1,30.1z M37.8,57.8c-1.6-3.7-3-7.3-4.1-10.7c3.7-0.8,7.5-1.4,11.6-1.9
			C42.6,49.2,40.1,53.5,37.8,57.8z M45.4,83.1c-4.2-0.5-8.1-1.1-11.8-1.8c1.1-3.5,2.5-7.2,4.1-11C40.1,74.6,42.7,78.9,45.4,83.1z
			 M64.2,98.1c-2.6-2.7-5.2-5.7-7.7-8.9c5.1,0.2,10.1,0.2,15.2,0C69.2,92.4,66.7,95.4,64.2,98.1z M90.3,70.1
			c1.7,3.8,3.2,7.4,4.3,10.9c-3.7,0.8-7.7,1.5-11.9,2C85.4,78.8,88,74.5,90.3,70.1z M75.7,83.6c-7.8,0.5-15.6,0.5-23.3,0
			C48,77.4,44.1,70.8,40.7,64c3.4-6.8,7.3-13.4,11.7-19.6c7.8-0.6,15.6-0.6,23.3,0c4.3,6.2,8.2,12.8,11.7,19.5
			C84,70.7,80,77.3,75.7,83.6z M93.1,14.8c8,4.5,4.4,20.3,2.7,27.2c-5.3-1.2-11.1-2.1-17.1-2.6c-3.5-4.9-7.2-9.3-10.8-13.1
			C73.3,21.3,85.2,10.4,93.1,14.8z"/>
		<path class="st5" d="M75.4,64.2c0-6.1-5.1-11.1-11.4-11.1s-11.4,5-11.4,11.1S57.7,75.3,64,75.3C70.3,75.3,75.4,70.3,75.4,64.2z"/>
	</g>
</g>
<g id="Layer_16" class="st0">
	<g class="st3">
		<path class="st6" d="M1.8,45c0,0-3.1-2.2,0.6-5.2l8.6-7.7c0,0,2.5-2.6,5.1-0.3l79.7,60.5v29c0,0,0,4.6-5.9,4.1L1.8,45z"/>
		<path class="st7" d="M22.4,63.7L1.8,82.4c0,0-2.1,1.6,0,4.4l9.5,8.7c0,0,2.3,2.4,5.6-0.3l21.8-16.5L22.4,63.7z"/>
		<path class="st8" d="M58.4,63.8L96.1,35L95.8,6.2c0,0-1.6-6.3-7-3L38.7,48.9L58.4,63.8z"/>
		<path class="st9" d="M89.9,125.2c2.2,2.2,4.8,1.5,4.8,1.5l29.3-14.5c3.8-2.6,3.2-5.8,3.2-5.8V19.9c0-3.8-3.9-5.1-3.9-5.1L98,2.5
			c-5.6-3.4-9.2,0.6-9.2,0.6s4.7-3.4,7,3v114.5c0,0.8-0.2,1.6-0.5,2.3c-0.7,1.4-2.1,2.6-5.6,2.1L89.9,125.2z"/>
	</g>
</g>
<g id="Layer_14" class="st0">
	<g class="st3">
		<g id="Layer_3_xA0_Image_1_">
			<path class="st10" d="M127.8,22.5c0,27.5,0,55.1,0,82.6c0,0.5-0.1,1-0.2,1.5c-0.3,2.5-1.1,4.8-2.2,7c-1.2,2.4-2.8,4.6-4.9,6.4
				c-3.2,2.9-6.9,4.8-11.1,5.6c-0.6,0.1-1.3,0.2-1.9,0.3c-29.1,0-58.2,0-87.3,0c-0.1,0-0.2-0.1-0.3-0.1c-2.7-0.3-5.3-1.1-7.8-2.4
				c-2.3-1.2-4.4-2.8-6.2-4.7c-1.5-1.6-2.7-3.3-3.6-5.2c-1-2.1-1.7-4.2-2.1-6.5c-0.1-0.6-0.2-1.2-0.4-1.9c0-27.6,0-55.2,0-82.8
				c0.1-0.7,0.3-1.3,0.4-2c0.4-2.3,1.1-4.4,2.1-6.5c1.2-2.4,2.9-4.6,4.9-6.4c1.6-1.4,3.3-2.7,5.2-3.6c2.2-1.1,4.6-1.8,7-2.2
				c0.5-0.1,0.9-0.1,1.4-0.2c28.6,0,57.2,0,85.8,0c0.1,0,0.1,0.1,0.2,0.1c0.8,0.1,1.7,0.2,2.5,0.3c4.8,1,8.9,3.2,12.3,6.8
				c1.8,1.9,3.2,4.1,4.2,6.5c0.9,2.2,1.6,4.5,1.6,6.8C127.7,22.3,127.7,22.4,127.8,22.5z"/>
		</g>
		<g id="Layer_4_xA0_Image_1_">
			<path class="st11" d="M43.3,35c0.5,0,0.9,0,1.4,0.1c1.6,0.2,3.2,0.3,4.7,0.5c4.2,0.8,7.9,2.4,11,5.4c2.3,2.2,3.7,4.9,4.5,8
				c0.4,1.6,0.7,3.2,0.7,4.9c0,3.6-0.5,7-2.3,10.1c-2,3.4-4.8,5.9-8.5,7.5c-1.8,0.8-3.8,1.3-5.7,1.7c-2.9,0.5-5.9,0.6-8.9,0.5
				c-1.1,0-2.1-0.1-3.3-0.1c0,0.2,0,0.3,0,0.4c0,5.5,0,11,0,16.6c0,0.6-0.2,0.9-0.9,0.9c-3.3,0-6.6,0-9.9,0c-0.5,0-0.7-0.1-0.8-0.6
				c0-18.4,0-36.7,0-55.1c0.1-0.2,0.2-0.4,0.5-0.4c2.4-0.1,4.7-0.1,7.1-0.2c2.2,0,4.4-0.1,6.7-0.1c0.1,0,0.2,0,0.2,0
				C41,35,42.2,35,43.3,35z M37,63.5c0.5,0,1,0.1,1.4,0.1c2.4,0,4.7,0.2,7.1-0.3c1.4-0.3,2.7-0.6,4-1.2c1.7-0.9,3.2-2.1,3.9-4
				s0.8-3.9,0.4-5.9c-0.6-2.6-2.1-4.4-4.6-5.5c-1.7-0.7-3.4-1.1-5.3-1.1c-2.1,0-4.2,0-6.3,0c-0.2,0-0.4,0-0.6,0.1
				C37,51.6,37,57.5,37,63.5z"/>
			<path class="st11" d="M71.3,84.5c0-1.5,0-3.1,0-4.6c0-0.6,0.3-0.8,0.8-0.5c2.6,1.5,5.3,2.4,8.2,2.9c1.9,0.4,3.8,0.5,5.8,0.4
				c1.1-0.1,2.1-0.2,3.1-0.7c1.3-0.5,2.2-2.4,0.7-3.9c-0.7-0.7-1.6-1.2-2.5-1.6c-1.8-0.8-3.6-1.4-5.3-2.2c-2.2-0.9-4.3-2-6.1-3.5
				c-1.8-1.5-3.2-3.2-4-5.5c-0.4-1.1-0.6-2.3-0.6-3.5c-0.1-2.3,0.4-4.5,1.6-6.6c1.3-2.3,3.1-3.9,5.4-5.1c2-1,4.1-1.6,6.3-1.8
				c2-0.2,4-0.3,6-0.1c1.6,0.1,3.2,0.3,4.8,0.5c1.4,0.2,2.7,0.6,4,1.1c0.4,0.2,0.6,0.6,0.6,1c0,2.9,0,5.9,0,8.8
				c0,0.3-0.1,0.5-0.5,0.6c-0.3,0.1-0.6,0.1-0.9-0.1c-2-1-4.1-1.6-6.3-2c-1.6-0.3-3.2-0.4-4.8-0.4c-1.1,0-2.2,0.1-3.3,0.4
				c-1.1,0.3-1.8,1.1-1.8,2.3c0,0.6,0.2,1.1,0.6,1.5c0.5,0.6,1.2,1.1,2,1.5c1.8,0.9,3.7,1.7,5.6,2.4c2.5,1,5,2.2,7.2,3.8
				c2.2,1.6,3.6,3.7,4.2,6.4c0.3,1.4,0.3,2.8,0.2,4.2c-0.2,2-0.8,3.8-1.9,5.5c-1.5,2.3-3.5,3.9-6.1,5c-1.9,0.8-3.9,1.3-6,1.5
				c-2,0.2-3.9,0.2-5.9,0.1c-2.4-0.1-4.8-0.5-7.2-1.1C74.1,90.9,73,90.4,72,90c-0.5-0.2-0.7-0.6-0.7-1.1
				C71.3,87.6,71.3,86.1,71.3,84.5z"/>
		</g>
	</g>
</g>
<g id="Layer_13" class="st0">
	<g class="st3">
		<path class="st12" d="M2,38.5h124v43.7H64v7.3H36.4v-7.3H2V38.5z M8.9,74.9h13.8V53.1h6.9V75h6.9V45.8H8.9V74.9z M43.3,45.8v36.4
			h13.8v-7.3h13.8V45.8H43.3z M57.1,53.1H64v14.6h-6.9V53.1z M77.8,45.8v29.1h13.8V53.1h6.9V75h6.9V53.1h6.9V75h6.9V45.8H77.8z"/>
	</g>
</g>
<g id="Layer_12" class="st0">
	<g class="st3">
		<path class="st13" d="M128,22.6c0,27.6,0,55.2,0,82.8c0,0.5-0.1,1-0.2,1.5c-0.3,2.5-1.1,4.8-2.2,7c-1.2,2.4-2.9,4.6-4.9,6.5
			c-3.2,2.9-6.9,4.8-11.1,5.6c-0.6,0.1-1.3,0.2-1.9,0.3c-29.2,0-58.3,0-87.5,0c-0.1,0-0.2-0.1-0.3-0.1c-2.7-0.3-5.3-1.1-7.8-2.4
			c-2.3-1.2-4.4-2.8-6.2-4.7c-1.5-1.6-2.7-3.3-3.6-5.2c-1-2.1-1.7-4.2-2.1-6.5c-0.1-0.6-0.2-1.2-0.4-1.9c0-27.6,0-55.3,0-82.9
			c0.1-0.7,0.3-1.3,0.4-2c0.4-2.3,1.1-4.5,2.1-6.5c1.2-2.4,2.9-4.6,4.9-6.5C8.9,6.2,10.7,5,12.6,4c2.2-1.1,4.6-1.8,7.1-2.2
			c0.5-0.1,0.9-0.1,1.4-0.2c28.7,0,57.3,0,86,0c0.1,0,0.1,0.1,0.2,0.1c0.8,0.1,1.7,0.2,2.5,0.3c4.8,1,8.9,3.2,12.3,6.9
			c1.8,1.9,3.2,4.1,4.2,6.5c0.9,2.2,1.6,4.5,1.7,6.9C127.9,22.4,128,22.5,128,22.6z"/>
		<g>
			<path class="st14" d="M26.2,88.7c2.7-7.7,5.3-15.3,8-23c3.1-8.8,6.1-17.7,9.2-26.5c0.6-1.7,0.9-3.4,0.9-5.2
				c0-0.5,0.2-0.7,0.7-0.7c4.5,0,9,0,13.4,0c0.7,0,0.8,0.1,1,0.7c3.4,9.6,6.8,19.3,10.3,28.9c2.6,7.4,5.2,14.7,7.8,22.1
				c0.4,1.1,0.8,2.3,1.2,3.4c0,0.1,0,0.1,0.1,0.2c0.2,0.7,0,0.9-0.7,0.9c-3.7,0-7.4,0-11,0c-0.4,0-0.7-0.2-0.9-0.6
				c-0.8-2.4-1.7-4.8-2.5-7.2c-0.6-1.7-1.2-3.4-1.8-5.1c-0.1-0.2-0.2-0.3-0.4-0.3c-6.4,0-12.9,0-19.3,0c-0.3,0-0.3,0.1-0.4,0.3
				c-1.3,4-2.6,8.1-3.9,12.1c-0.2,0.7-0.5,0.9-1.2,0.9c-3.2,0-6.4,0-9.6,0c-0.2,0-0.4,0-0.5,0c-0.1-0.1-0.2-0.2-0.4-0.4
				C26.2,89,26.2,88.8,26.2,88.7z M58.5,65.3c-2.3-7.4-4.8-14.7-6.8-22.2c0,0.1-0.1,0.1-0.1,0.1c-0.3,1.4-0.6,2.8-1,4.2
				c-0.9,3.1-1.9,6.2-2.8,9.3c-0.8,2.7-1.7,5.4-2.5,8.1c0,0.2-0.1,0.3-0.2,0.5C49.6,65.3,54,65.3,58.5,65.3z"/>
			<path class="st14" d="M84.6,68.3c0-6.8,0-13.6,0-20.4c0-0.7,0.2-0.9,0.9-0.9c3.4,0,6.8,0,10.3,0c0.6,0,0.8,0.2,0.9,0.8
				c0,0.1,0,0.2,0,0.3c0,13.5,0,26.9,0,40.4c0,0.2,0,0.3,0,0.5c0,0.5-0.3,0.7-0.8,0.7c-0.4,0-0.9,0-1.3,0c-3,0-5.9,0-8.9,0
				c-0.8,0-1-0.3-1-1C84.6,82,84.6,75.1,84.6,68.3z"/>
			<path class="st14" d="M90.6,42.6c-1.7,0.1-3.2-0.5-4.5-1.6c-1.1-0.9-1.7-2.2-2-3.6c-0.3-1.9-0.2-3.7,0.9-5.4
				c1.1-1.6,2.5-2.5,4.4-2.8c1.6-0.3,3.1-0.1,4.6,0.6c1.7,0.9,2.7,2.3,3.1,4.1c0.6,2.6,0.1,5-1.8,6.9C94,42.2,92.4,42.7,90.6,42.6z"
				/>
		</g>
	</g>
</g>
<g id="Layer_11" class="st0">
	<g class="st3">
		<path class="st15" d="M7.6,0.1l10.3,115.1L64,127.9l46.2-12.7L120.4,0.1H7.6z M99.1,27.3l-0.6,7.4l-0.3,3.4H44.1l1.3,14.4h51.5
			L96.5,56l-3.3,37.1L93,95.5l-29,8l0,0l0,0l-29-7.7L33,74h14.2l1,11.2L64,89.4l0,0v-0.6l15.8-4l1.6-18.1h-49l-3.4-39l-0.3-4h70.8
			C99.4,23.7,99.1,27.3,99.1,27.3z"/>
	</g>
</g>
<g id="Layer_10" class="st0">
	<g class="st3">
		<path class="st16" d="M64.1,0.2c-35.3,0-64,28.6-64,64c0,28.3,18.3,52.3,43.8,60.7c3.2,0.6,4.3-1.4,4.3-3.1
			c0-1.5-0.1-6.6-0.1-11.9c-17.8,3.9-21.5-7.5-21.5-7.5c-2.9-7.4-7.1-9.3-7.1-9.3c-5.8-3.9,0.4-3.9,0.4-3.9c6.5,0.4,9.9,6.6,9.9,6.6
			c5.7,9.8,14.9,7,18.7,5.3c0.5-4.1,2.2-7,4-8.6C38.2,91,23.3,85.4,23.3,61c0-7,2.5-12.7,6.6-17.2c-0.6-1.6-2.9-8.2,0.6-17
			c0,0,5.4-1.7,17.6,6.6c5.1-1.4,10.6-2.1,16-2.1s10.9,0.7,16,2.1c12.2-8.3,17.6-6.6,17.6-6.6c3.5,8.8,1.3,15.4,0.6,17
			c4.1,4.5,6.6,10.2,6.6,17.2c0,24.6-14.9,30-29.3,31.6c2.3,2,4.3,5.9,4.3,11.9c0,8.6-0.1,15.5-0.1,17.6c0,1.7,1.2,3.7,4.3,3.1
			c25.4-8.5,43.8-32.4,43.8-60.7C128.1,28.8,99.4,0.2,64.1,0.2L64.1,0.2z"/>
		<path class="st17" d="M24.3,92.1c-0.1,0.3-0.6,0.4-1.1,0.2s-0.7-0.6-0.5-1c0.1-0.3,0.6-0.4,1.1-0.2C24.2,91.4,24.4,91.8,24.3,92.1
			L24.3,92.1z M26.9,95c-0.3,0.3-1,0.1-1.3-0.3c-0.4-0.4-0.5-1.1-0.2-1.4s0.8-0.1,1.3,0.3C27.2,94.1,27.2,94.8,26.9,95L26.9,95z
			 M29.4,98.7c-0.4,0.3-1.1,0-1.5-0.5s-0.4-1.3,0-1.5c0.4-0.3,1.1,0,1.5,0.5S29.8,98.4,29.4,98.7L29.4,98.7z M32.9,102.3
			c-0.3,0.4-1.1,0.3-1.7-0.2c-0.5-0.5-0.7-1.3-0.3-1.6c0.3-0.4,1.1-0.3,1.7,0.2C33.1,101.1,33.2,101.9,32.9,102.3L32.9,102.3z
			 M37.7,104.3c-0.1,0.5-0.8,0.7-1.6,0.5c-0.7-0.2-1.2-0.8-1.1-1.3c0.1-0.5,0.8-0.7,1.6-0.5S37.8,103.8,37.7,104.3z M42.9,104.7
			c0,0.5-0.6,1-1.4,1s-1.4-0.4-1.4-1c0-0.5,0.6-1,1.4-1C42.3,103.8,42.9,104.2,42.9,104.7L42.9,104.7z M47.8,103.9
			c0.1,0.5-0.4,1.1-1.2,1.2c-0.7,0.1-1.4-0.2-1.5-0.7s0.4-1.1,1.2-1.2C47,103,47.7,103.4,47.8,103.9L47.8,103.9z"/>
	</g>
</g>
<g id="Layer_9" class="st0">
	<g class="st3">
		<path class="st18" d="M125.6,58.3L69.7,2.4c-3.2-3.2-8.4-3.2-11.7,0L46.4,14l14.7,14.7c3.4-1.2,7.3-0.4,10.1,2.3
			c2.7,2.7,3.5,6.7,2.3,10.1l14.2,14.2c3.4-1.2,7.4-0.4,10.1,2.3c3.8,3.8,3.8,10,0,13.9c-3.8,3.8-10,3.8-13.9,0
			c-2.9-2.9-3.6-7.1-2.1-10.7L68.6,47.7v34.8c1,0.5,1.8,1.1,2.6,1.9c3.8,3.8,3.8,10,0,13.9c-3.8,3.8-10,3.8-13.9,0
			c-3.8-3.8-3.8-10,0-13.9c0.9-0.9,2-1.6,3.2-2.1V47.1c-1.2-0.5-2.3-1.2-3.2-2.1c-2.9-2.9-3.6-7.2-2.1-10.7L40.7,19.7L2.4,58
			c-3.2,3.2-3.2,8.4,0,11.7l55.9,55.9c3.2,3.2,8.4,3.2,11.7,0L125.6,70C128.8,66.7,128.8,61.5,125.6,58.3"/>
	</g>
</g>
<g id="Layer_8" class="st0">
	<g class="st3">
		<path class="st19" d="M110.2,71.2c-4.5,0-8.3,1.1-11.6,2.7c-1.2-2.4-2.4-4.5-2.6-6c-0.2-1.8-0.5-2.9-0.2-5.1
			c0.3-2.2,1.5-5.2,1.5-5.4S97,56.1,94.4,56c-2.6,0-4.8,0.5-5.1,1.2c-0.3,0.7-0.7,2.2-1.1,3.8c-0.4,2.3-5.1,10.7-7.8,15.1
			c-0.9-1.7-1.6-3.2-1.8-4.4c-0.2-1.8-0.5-2.9-0.2-5.1s1.5-5.2,1.5-5.4s-0.3-1.3-2.9-1.4c-2.6,0-4.8,0.5-5.1,1.2
			c-0.3,0.7-0.5,2.3-1.1,3.8c-0.5,1.5-6.8,15.5-8.4,19.1c-0.8,1.8-1.6,3.3-2.1,4.3l0,0c0,0,0,0.1-0.1,0.2c-0.4,0.9-0.7,1.3-0.7,1.3
			l0,0c-0.4,0.6-0.7,1.2-0.9,1.2c-0.1,0-0.4-1.7,0-4c0.9-4.8,3.2-12.4,3.1-12.6c0-0.1,0.4-1.4-1.4-2.1c-1.8-0.7-2.5,0.4-2.6,0.4
			c-0.2,0-0.3,0.4-0.3,0.4s2-8.5-3.9-8.5c-3.7,0-8.8,4-11.3,7.7c-1.6,0.9-5,2.7-8.6,4.7c-1.4,0.8-2.8,1.5-4.1,2.3
			c-0.1-0.1-0.2-0.2-0.3-0.3C22.3,71.3,9,65.9,9.6,55.6C9.8,51.9,11.1,42,35,30.1c19.7-9.7,35.4-7,38.1-1.1
			c3.9,8.5-8.4,24.3-28.7,26.6c-7.8,0.9-11.8-2.1-12.9-3.3s-1.2-1.2-1.6-1c-0.7,0.4-0.2,1.4,0,2c0.6,1.6,3.1,4.4,7.3,5.8
			c3.7,1.2,12.8,1.9,23.9-2.4c12.3-4.8,22-18,19.1-29.1c-2.8-11.3-21.5-15-39.2-8.7c-10.6,3.9-22,9.8-30.2,17.4
			C1,45.5-0.5,53.4,0.1,56.7c2.3,11.8,18.5,19.5,25,25.1c-0.3,0.2-0.6,0.4-0.9,0.5C21,84,8.6,90.4,5.5,97.3
			c-3.5,7.8,0.6,13.3,3.3,14.1c8.3,2.3,16.9-1.8,21.5-8.7c4.6-6.9,4-15.8,1.9-19.9c0,0,0-0.1-0.1-0.1c0.8-0.5,1.7-1,2.5-1.5
			c1.7-1,3.3-1.9,4.7-2.6c-0.8,2.2-1.4,4.8-1.7,8.5c-0.4,4.4,1.4,10.1,3.8,12.3c1.1,1,2.3,1,3.1,1c2.8,0,4-2.3,5.4-5
			c1.7-3.3,3.2-7.2,3.2-7.2s-1.9,10.4,3.3,10.4c1.9,0,3.8-2.4,4.6-3.7l0,0c0,0,0-0.1,0.1-0.2c0.2-0.3,0.3-0.5,0.3-0.5l0,0
			c0.7-1.3,2.4-4.3,4.9-9.2c3.2-6.4,6.3-14.3,6.3-14.3s0.3,1.9,1.2,5.2c0.6,1.9,1.7,4,2.7,6c-0.7,1.1-1.2,1.6-1.2,1.6l0,0
			c-0.6,0.8-1.3,1.7-2,2.5c-2.5,3-5.6,6.5-6,7.5c-0.5,1.2-0.4,2.1,0.6,2.8c0.7,0.5,1.9,0.6,3.1,0.5c2.3-0.2,3.9-0.7,4.7-1.1
			c1.2-0.4,2.7-1.1,4-2.1c2.5-1.8,4-4.5,3.9-8c-0.1-1.9-0.7-3.8-1.5-5.6c0.2-0.3,0.4-0.7,0.7-1c4-5.8,7-12.1,7-12.1s0.3,1.9,1.2,5.2
			c0.5,1.6,1.4,3.4,2.3,5.1c-3.7,3-6,6.5-6.8,8.8c-1.5,4.3-0.3,6.2,1.8,6.6c1,0.2,2.4-0.3,3.4-0.7c1.3-0.4,2.9-1.1,4.3-2.2
			c2.5-1.8,4.9-4.4,4.8-7.9c-0.1-1.6-0.5-3.2-1.1-4.7c3.2-1.3,7.2-2,12.4-1.4C123.2,77,125.4,84,125,86.9c-0.4,2.9-2.8,4.5-3.5,5
			c-0.8,0.5-1,0.7-1,1c0.1,0.5,0.5,0.5,1.1,0.4c0.9-0.2,5.8-2.4,6.1-7.7C128.4,78.6,121.8,71.1,110.2,71.2L110.2,71.2z M24.4,100.1
			c-3.7,4-8.8,5.5-11.1,4.3c-2.4-1.4-1.4-7.3,3.1-11.6c2.8-2.6,6.3-5,8.7-6.5c0.5-0.3,1.3-0.8,2.3-1.4c0.2-0.1,0.3-0.1,0.3-0.1l0,0
			c0.2-0.1,0.4-0.2,0.6-0.4C29.8,90.6,28.2,95.9,24.4,100.1L24.4,100.1z M51.3,81.9C50,85,47.3,93,45.6,92.6
			c-1.4-0.4-2.3-6.5-0.3-12.5c1-3,3.1-6.6,4.4-8c2-2.2,4.2-3,4.8-2.1C55.2,71.2,52,79.9,51.3,81.9L51.3,81.9z M73.4,92.5
			c-0.5,0.3-1.1,0.5-1.3,0.3c-0.2-0.1,0.2-0.5,0.2-0.5s2.8-3,3.9-4.3c0.6-0.8,1.4-1.7,2.2-2.8v0.3C78.4,89.1,75,91.5,73.4,92.5
			L73.4,92.5z M90.6,88.6c-0.4-0.3-0.3-1.2,1-4.1c0.5-1.1,1.7-3.1,3.8-4.9c0.2,0.7,0.4,1.5,0.4,2.2C95.7,86.2,92.5,87.9,90.6,88.6
			L90.6,88.6z"/>
	</g>
</g>
<g id="Layer_7" class="st0">
	<g class="st3">
		<path class="st20" d="M6.3,0c0,3.5-2.8,6.3-6.3,6.3v1.6c3.5,0,6.3,2.8,6.3,6.3S3.5,20.5,0,20.5v1.6c3.5,0,6.3,2.8,6.3,6.3
			S3.5,34.8,0,34.8v1.6c3.5,0,6.3,2.8,6.3,6.3C6.3,46.1,3.5,49,0,49v1.6c3.5,0,6.3,2.8,6.3,6.3S3.5,63.2,0,63.2v1.6
			c3.5,0,6.3,2.8,6.3,6.3S3.5,77.4,0,77.4V79c3.5,0,6.3,2.8,6.3,6.3S3.5,91.6,0,91.6v1.6c3.5,0,6.3,2.8,6.3,6.3s-2.8,6.3-6.3,6.3
			v1.6c3.5,0,6.3,2.8,6.3,6.3S3.5,120,0,120v1.6c3.5,0,6.3,2.8,6.3,6.3h1.6c0-3.5,2.8-6.3,6.3-6.3s6.3,2.8,6.3,6.3h1.6
			c0-3.5,2.8-6.3,6.3-6.3s6.3,2.8,6.3,6.3h1.6c0-3.5,2.8-6.3,6.3-6.3s6.3,2.8,6.3,6.3h1.6c0-3.5,2.8-6.3,6.3-6.3s6.3,2.8,6.3,6.3
			h1.6c0-3.5,2.8-6.3,6.3-6.3s6.3,2.8,6.3,6.3H79c0-3.5,2.8-6.3,6.3-6.3s6.3,2.8,6.3,6.3h1.6c0-3.5,2.8-6.3,6.3-6.3s6.3,2.8,6.3,6.3
			h1.6c0-3.5,2.8-6.3,6.3-6.3s6.3,2.8,6.3,6.3h1.6c0-3.3,2.5-5.9,5.7-6.3c0.2,0,0.4,0,0.6,0V120c-3.5,0-6.3-2.8-6.3-6.3
			s2.8-6.3,6.3-6.3v-1.6c-3.5,0-6.3-2.9-6.3-6.3s2.8-6.3,6.3-6.3v-1.6c-3.5,0-6.3-2.8-6.3-6.3s2.8-6.3,6.3-6.3v-1.6
			c-3.5,0-6.3-2.8-6.3-6.3s2.8-6.3,6.3-6.3v-1.6c-3.5,0-6.3-2.8-6.3-6.3s2.8-6.3,6.3-6.3V49c-3.5,0-6.3-2.9-6.3-6.3s2.8-6.3,6.3-6.3
			v-1.6c-3.5,0-6.3-2.8-6.3-6.3c0-3.3,2.5-6,5.7-6.3c0.2,0,0.4,0,0.6,0v-1.6c-3.5,0-6.3-2.8-6.3-6.3s2.8-6.3,6.3-6.3V6.3
			c-3.5,0-6.3-2.8-6.3-6.3H120c0,3.5-2.9,6.3-6.3,6.3s-6.3-2.8-6.3-6.3h-1.6c0,3.5-2.8,6.3-6.3,6.3S93.3,3.5,93.3,0h-1.6
			c0,3.5-2.8,6.3-6.3,6.3C81.8,6.3,79,3.5,79,0h-1.6c0,3.5-2.8,6.3-6.3,6.3S64.8,3.5,64.8,0h-1.6c0,3.5-2.9,6.3-6.3,6.3
			c-3.5,0-6.3-2.8-6.3-6.3H49c0,3.5-2.8,6.3-6.3,6.3S36.4,3.5,36.4,0h-1.6c0,3.5-2.8,6.3-6.3,6.3S22.1,3.5,22.1,0h-1.6
			c0,3.5-2.8,6.3-6.3,6.3S7.9,3.5,7.9,0H6.3L6.3,0z M35.7,19h55.1l-2.5,15.5H50.1l-3.6,14.9l61.7,0.5l-2.5,11.3L74.3,92.6
			c0,0,8.2,2.6,14.9,1.5c6.7-1,15.4-5.6,15.4-5.6l-3.6,15.9c0,0-5.1,1.5-11.3,3.1c-6.2,1.5-9.2,2.1-12.8,0.5s-9.3-2-13.4-1.5
			s-9.3,2-9.3,2l-5.6-11.3L82,64.1H44.7l-8,35.7h-17L35.7,19z"/>
	</g>
</g>
<g id="Layer_5" class="st0">
	<g class="st3">
		<path class="st21" d="M7.6,0l10.3,115.2l46,12.8l46.2-12.9L120.4,0H7.6z M99.1,26.4l-3.4,38.4V65v0.5l0,0l-2.4,26.8L93,94.7
			l-28.9,8l0,0l0,0l-28.9-8l-2-22.2h14.2l1,11.3L64,87.9l0,0l0,0l15.8-4.3l1.7-18.4h-33l-0.3-3.1l-0.6-7.3L47.2,51h35.5L84,36.7H30
			l-0.3-3.1L29,26.3l-0.3-3.9h70.7C99.4,22.4,99.1,26.4,99.1,26.4z"/>
	</g>
</g>
<g id="Layer_6" class="st0">
	<g class="st3">
		<path class="st22" d="M128,22.6c0,27.6,0,55.2,0,82.8c0,0.5-0.1,1-0.2,1.5c-0.3,2.5-1.1,4.8-2.2,7c-1.2,2.4-2.9,4.6-4.9,6.5
			c-3.2,2.9-6.9,4.8-11.1,5.6c-0.6,0.1-1.3,0.2-1.9,0.3c-29.2,0-58.3,0-87.5,0c-0.1,0-0.2-0.1-0.3-0.1c-2.7-0.3-5.3-1.1-7.8-2.4
			c-2.3-1.2-4.4-2.8-6.2-4.7c-1.5-1.6-2.7-3.3-3.6-5.2c-1-2.1-1.7-4.2-2.1-6.5c-0.1-0.6-0.2-1.3-0.4-1.9c0-27.6,0-55.3,0-82.9
			c0.1-0.7,0.3-1.3,0.4-2c0.4-2.3,1.1-4.5,2.1-6.5c1.2-2.4,2.9-4.6,4.9-6.5C8.9,6.2,10.7,5,12.6,4c2.2-1.1,4.6-1.8,7-2.1
			c0.5-0.1,0.9-0.1,1.4-0.2c28.7,0,57.3,0,86,0c0.1,0,0.1,0.1,0.2,0.1c0.8,0.1,1.7,0.2,2.5,0.3c4.8,1,8.9,3.2,12.3,6.9
			c1.8,1.9,3.2,4.1,4.2,6.5c0.9,2.2,1.6,4.5,1.7,6.9C127.9,22.4,128,22.5,128,22.6z"/>
		<g>
			<path class="st23" d="M108.6,90.2c-0.1,0.6-0.5,0.8-1,1c-3.3,1.3-6.7,2.2-10.2,2.6c-2.9,0.4-5.9,0.6-8.8,0.3
				c-5.7-0.6-10.8-2.4-14.6-6.9c-2.1-2.5-3.4-5.3-4.1-8.5c-0.6-2.7-0.7-5.5-0.5-8.3c0.5-5.5,2.9-10.2,7-13.9
				c3.4-3.1,7.4-4.8,11.9-5.6c2.6-0.4,5.2-0.5,7.8-0.3c0.1,0,0.2,0,0.3,0c0-0.3,0-0.5,0-0.8c0-5.1,0-10.2,0-15.3
				c0-0.4-0.1-0.9,0.4-1.1c3.7,0,7.3,0,11,0c0.4,0.2,0.4,0.6,0.4,1c0,16.9,0,33.8,0,50.7c0,1.5,0.2,3.1,0.3,4.6
				C108.6,90.1,108.6,90.2,108.6,90.2z M96.4,60.8c-2.5-0.6-5-0.5-7.3,0.3c-3.6,1.3-6.3,3.6-7.3,7.4C81,71.7,81.2,75,82.4,78
				c1,2.4,2.6,4.1,5,5.1c2.7,1.1,5.5,1,8.3,0.8c0.6-0.1,0.8-0.3,0.8-0.9c0-7.2,0-14.3,0-21.5C96.4,61.3,96.4,61.1,96.4,60.8z"/>
			<path class="st23" d="M44.3,58.8c1.1-2.1,2.1-4.2,3.2-6.2c2.3-4.4,4.7-8.7,6.9-13.1c0.5-1,1.1-1.3,2.1-1.3c3.3,0.1,6.7,0,10,0
				c0.3,0,0.7,0.1,0.8,0.3c0.1,0.1-0.1,0.5-0.2,0.8C62.1,47.6,57,56,52,64.3c-0.3,0.5-0.3,0.7,0,1.2c5.3,8.7,10.7,17.5,16,26.2
				c0.2,0.4,0.3,0.8,0.5,1.2c-0.4,0.1-0.8,0.2-1.2,0.2c-3.6,0-7.2,0-10.9,0c-0.3,0-0.6,0-1,0c-0.8,0-1.3-0.4-1.7-1.1
				c-3.4-6.3-6.8-12.7-10.2-19c0-0.1-0.1-0.2-0.2-0.3c-0.1,0.2-0.2,0.3-0.3,0.5c-3.5,6.5-6.9,13-10.4,19.5c-0.2,0.4-0.5,0.6-0.9,0.6
				c-1.1,0-2.1,0-3.2,0c-2.9,0-5.7,0-8.6,0c-0.2,0-0.3,0-0.6,0c0.1-0.4,0.2-0.7,0.3-1c4.8-8,9.7-16,14.6-23.9c0.4-0.7,0.8-1.3,1.2-2
				c0.3-0.4,0.2-0.6,0-1c-5-8.7-10.1-17.4-15.3-26.2c-0.4-0.7-0.3-1,0.5-1c4,0,8.1,0,12.1,0c0.5,0,0.9,0.3,1.1,0.7
				c2.7,6.1,6.3,11.7,9.4,17.6C43.5,57.3,43.9,58,44.3,58.8z"/>
		</g>
	</g>
</g>
<g id="Layer_4" class="st0">
	<g class="st3">
		<path class="st24" d="M0,0h128v128H0V0z"/>
		<path class="st25" d="M117.5,97.5c-0.9-5.8-4.7-10.7-16-15.3c-3.9-1.8-8.3-3.1-9.6-6.1c-0.5-1.7-0.5-2.7-0.2-3.7
			c0.8-3.4,4.9-4.5,8.1-3.5c2.1,0.7,4,2.3,5.2,4.8c5.5-3.6,5.5-3.6,9.4-6c-1.4-2.2-2.2-3.2-3.1-4.1c-3.3-3.7-7.8-5.6-15.1-5.5
			l-3.8,0.5c-3.6,0.9-7.1,2.8-9.1,5.4c-6.1,6.9-4.3,18.9,3,23.9c7.3,5.5,17.9,6.7,19.3,11.8c1.3,6.2-4.6,8.3-10.5,7.5
			c-4.3-0.9-6.7-3.1-9.3-7.1c-4.8,2.8-4.8,2.8-9.7,5.6c1.2,2.6,2.4,3.7,4.4,5.9c9.3,9.4,32.5,8.9,36.6-5.3
			C117.3,105.8,118.4,102.5,117.5,97.5z M69.6,58.8h-12v31c0,6.6,0.3,12.6-0.7,14.5c-1.8,3.6-6.3,3.2-8.4,2.5
			c-2.1-1-3.2-2.5-4.4-4.6c-0.3-0.6-0.6-1.1-0.7-1.1l-9.7,6c1.6,3.3,4,6.2,7.1,8.1c4.6,2.7,10.7,3.6,17.1,2.1
			c4.2-1.2,7.8-3.7,9.7-7.6c2.7-5,2.1-11.1,2.1-17.8C69.6,80.8,69.6,69.8,69.6,58.8z"/>
	</g>
</g>
<g id="Layer_3" class="st0">
	<g>
		<path class="st26" d="M42.7,127.9c11.8,0,21.3-9.5,21.3-21.3V85.3H42.7c-11.8,0-21.3,9.5-21.3,21.3S30.9,127.9,42.7,127.9z"/>
		<path class="st27" d="M21.4,64c0-11.8,9.5-21.3,21.3-21.3H64v42.6H42.7C30.9,85.3,21.4,75.8,21.4,64z"/>
		<path class="st28" d="M21.4,21.4c0-11.8,9.5-21.3,21.3-21.3H64v42.6H42.7C30.9,42.7,21.4,33.2,21.4,21.4z"/>
		<path class="st29" d="M64,0.1h21.3c11.8,0,21.3,9.5,21.3,21.3s-9.4,21.3-21.2,21.3H64V0.1z"/>
		<path class="st30" d="M106.7,64c0,11.8-9.5,21.3-21.3,21.3S64,75.8,64,64s9.5-21.3,21.3-21.3S106.7,52.2,106.7,64z"/>
	</g>
</g>
<g id="Layer_2">
	<path class="st31" d="M32,51.2c4.3-17.1,14.9-25.6,32-25.6c25.6,0,28.8,19.2,41.6,22.4c8.5,2.1,16-1.1,22.4-9.6
		C123.7,55.5,113,64,96,64c-25.6,0-28.8-19.2-41.6-22.4C45.9,39.5,38.4,42.7,32,51.2z M0,89.6C4.3,72.5,14.9,64,32,64
		c25.6,0,28.8,19.2,41.6,22.4c8.5,2.1,16-1.1,22.4-9.6c-4.3,17.1-14.9,25.6-32,25.6c-25.6,0-28.8-19.2-41.6-22.4
		C13.9,77.9,6.4,81.1,0,89.6z"/>
</g>
</svg>
