<?xml version="1.0" encoding="utf-8"?>
<!-- Generator: Adobe Illustrator 26.2.1, SVG Export Plug-In . SVG Version: 6.00 Build 0)  -->
<svg version="1.1" id="Layer_1" xmlns="http://www.w3.org/2000/svg" xmlns:xlink="http://www.w3.org/1999/xlink" x="0px" y="0px"
	 viewBox="0 0 34 34" style="enable-background:new 0 0 34 34;" xml:space="preserve">
<style type="text/css">
	.st0{display:none;fill:#FF0000;fill-opacity:0;}
	.st1{display:none;fill:#FFFFFF;}
	.st2{fill:#1572B6;}
</style>
<g id="icon-css3" transform="translate(2.961 1)">
	<rect id="Rectangle_1822" x="-3" y="-1" class="st0" width="34" height="34"/>
	<rect id="Rectangle_15" x="3.7" y="2.4" class="st1" width="20.6" height="25.4"/>
	<path id="css3-plain" class="st2" d="M0,0l2.6,28.8L14.1,32l11.6-3.2L28.3,0H0z M22.9,6.6l-0.9,9.6v0.1v0.1l0,0l-0.6,6.7l-0.1,0.6
		l-7.3,2l0,0h0l-7.2-2l-0.5-5.5h3.5l0.3,2.8l3.9,1.1l0,0l0,0l4-1.1l0.4-4.6h-8.3l-0.1-0.8L10,13.7l-0.1-1h8.9l0.3-3.6H5.6L5.5,8.4
		L5.4,6.6l-0.1-1H23L22.9,6.6L22.9,6.6z"/>
</g>
</svg>
