<svg xmlns="http://www.w3.org/2000/svg" width="34" height="34" viewBox="0 0 34 34">
  <g id="icon-adobe-illustrator" transform="translate(1 1)">
    <rect id="Rectangle_1827" data-name="Rectangle 1827" width="34" height="34" transform="translate(-1 -1)" fill="red" opacity="0"/>
    <path id="Path_12" data-name="Path 12" d="M33.92,7.125V27.778c-.012.125-.02.248-.038.371a5.653,5.653,0,0,1-4.534,4.765c-.156.03-.313.058-.469.087H7.072a.229.229,0,0,0-.065-.024,5.5,5.5,0,0,1-1.944-.6A5.687,5.687,0,0,1,2.612,29.9a5.446,5.446,0,0,1-.522-1.623c-.026-.155-.059-.31-.09-.466V7.125c.03-.166.065-.331.091-.5a5.388,5.388,0,0,1,.527-1.622A5.592,5.592,0,0,1,3.837,3.394a5.7,5.7,0,0,1,1.3-.9A5.5,5.5,0,0,1,6.9,1.955c.118-.015.235-.036.354-.055H28.7a.2.2,0,0,0,.053.021c.205.027.413.039.614.08a5.619,5.619,0,0,1,3.068,1.71,5.512,5.512,0,0,1,1.055,1.631A4.866,4.866,0,0,1,33.9,7.054.28.28,0,0,0,33.92,7.125Z" transform="translate(-1.96 -1.45)" fill="#300"/>
    <g id="Group_10" data-name="Group 10" transform="translate(6.53 8.45)">
      <path id="Path_13" data-name="Path 13" d="M432,535.114q1-2.866,1.992-5.733,1.148-3.3,2.295-6.6a3.737,3.737,0,0,0,.22-1.3c0-.128.046-.176.17-.176h3.348c.176,0,.191.032.243.178q1.278,3.608,2.559,7.216.975,2.749,1.947,5.5l.3.844c.006.017.012.033.017.05.052.173.006.234-.175.234h-2.749a.2.2,0,0,1-.213-.159q-.312-.9-.621-1.8c-.147-.427-.295-.855-.44-1.282a.083.083,0,0,0-.091-.067q-2.4,0-4.806,0c-.064,0-.074.035-.088.079q-.487,1.506-.973,3.01c-.059.181-.114.22-.308.22h-2.4a.363.363,0,0,1-.135-.011c-.036-.017-.062-.059-.093-.09Zm8.068-5.819c-.582-1.841-1.191-3.663-1.7-5.529l-.017.024c-.085.349-.156.7-.257,1.045-.228.776-.471,1.546-.709,2.319-.208.674-.421,1.347-.63,2.02-.012.039-.026.079-.039.12C437.836,529.3,438.946,529.3,440.068,529.3Z" transform="translate(-432 -520.286)" fill="#ff9a00"/>
      <path id="Path_14" data-name="Path 14" d="M1390.7,753.006V747.92c0-.172.049-.22.22-.22h2.559c.155,0,.208.053.214.208,0,.023,0,.046,0,.068v10.073c0,.043,0,.087,0,.129-.011.123-.065.173-.191.176-.106,0-.213,0-.319,0h-2.225c-.191,0-.254-.064-.254-.255Z" transform="translate(-1376.141 -743.247)" fill="#ff9a00"/>
      <path id="Path_15" data-name="Path 15" d="M1382.419,457.844a1.574,1.574,0,0,1-1.119-.4,1.5,1.5,0,0,1-.492-.89,1.723,1.723,0,0,1,.228-1.335,1.6,1.6,0,0,1,1.09-.7,1.8,1.8,0,0,1,1.148.153,1.446,1.446,0,0,1,.77,1.014,1.737,1.737,0,0,1-.454,1.724A1.507,1.507,0,0,1,1382.419,457.844Z" transform="translate(-1366.359 -454.49)" fill="#ff9a00"/>
    </g>
  </g>
</svg>
