<?xml version="1.0" encoding="utf-8"?>
<!-- Generator: Adobe Illustrator 26.2.1, SVG Export Plug-In . SVG Version: 6.00 Build 0)  -->
<svg version="1.1" id="Layer_3" xmlns="http://www.w3.org/2000/svg" xmlns:xlink="http://www.w3.org/1999/xlink" x="0px" y="0px"
	 viewBox="0 0 34 34" style="enable-background:new 0 0 34 34;" xml:space="preserve">
<style type="text/css">
	.st0{fill:#539E43;}
</style>
<g>
	<path class="st0" d="M17,32.3c-0.4,0-0.8-0.1-1.2-0.3L12,29.7c-0.6-0.3-0.3-0.4-0.1-0.5c0.8-0.3,0.9-0.3,1.7-0.8
		c0.1-0.1,0.2,0,0.3,0l2.9,1.7c0.1,0.1,0.3,0.1,0.3,0l11.3-6.6c0.1-0.1,0.2-0.2,0.2-0.3V10.3c0-0.1-0.1-0.3-0.2-0.3L17.1,3.4
		c-0.1-0.1-0.3-0.1-0.3,0L5.5,10c-0.1,0.1-0.2,0.2-0.2,0.3v13.1c0,0.1,0.1,0.3,0.2,0.3l3.1,1.8c1.7,0.9,2.7-0.1,2.7-1.1V11.4
		c0-0.2,0.1-0.3,0.3-0.3h1.4c0.2,0,0.3,0.1,0.3,0.3v12.9c0,2.2-1.2,3.5-3.3,3.5c-0.7,0-1.2,0-2.6-0.7l-3-1.7
		c-0.7-0.4-1.2-1.2-1.2-2.1V10.3c0-0.9,0.5-1.6,1.2-2.1l11.3-6.6c0.7-0.4,1.7-0.4,2.4,0l11.3,6.6c0.7,0.4,1.2,1.2,1.2,2.1v13.1
		c0,0.9-0.5,1.6-1.2,2.1L18.2,32C17.8,32.2,17.4,32.3,17,32.3L17,32.3z M20.5,23.3c-5,0-6-2.3-6-4.2c0-0.2,0.1-0.3,0.3-0.3h1.5
		c0.2,0,0.3,0.1,0.3,0.3c0.2,1.5,0.9,2.2,3.9,2.2c2.4,0,3.4-0.5,3.4-1.8c0-0.7-0.3-1.3-4-1.6c-3.1-0.3-5-1-5-3.5
		c0-2.3,1.9-3.7,5.2-3.7c3.6,0,5.4,1.2,5.6,4c0,0.1,0,0.2-0.1,0.3C25.6,15,25.5,15,25.4,15h-1.5c-0.1,0-0.3-0.1-0.3-0.3
		c-0.3-1.6-1.2-2.1-3.5-2.1c-2.6,0-2.9,0.9-2.9,1.6c0,0.8,0.4,1.1,3.9,1.5c3.5,0.5,5.1,1.1,5.1,3.5C26.1,21.8,24.1,23.3,20.5,23.3
		L20.5,23.3z"/>
</g>
</svg>
