<svg xmlns="http://www.w3.org/2000/svg" width="34" height="34" viewBox="0 0 34 34">
  <g id="icon-behance" transform="translate(1 1)">
    <rect id="Rectangle_1816" data-name="Rectangle 1816" width="34" height="34" transform="translate(-1 -1)" fill="red" opacity="0"/>
    <g id="Group_6" data-name="Group 6" transform="translate(0 0)">
      <ellipse id="Ellipse_8" data-name="Ellipse 8" cx="15.998" cy="15.998" rx="15.998" ry="15.998" fill="#4176fa"/>
    </g>
    <g id="Group_7" data-name="Group 7" transform="translate(6.533 10.149)">
      <path id="Path_1" data-name="Path 1" d="M38.11,38.654c-4.621,0-4.627,4.6-4.627,4.627A4.277,4.277,0,0,0,38.11,47.89s4.122.234,4.122-3.208H40.115s.07,1.3-1.935,1.3a1.957,1.957,0,0,1-2.117-2.093H42.3S42.989,38.654,38.11,38.654Zm-2.07,3.618a2.15,2.15,0,0,1,2.117-1.853,1.785,1.785,0,0,1,1.835,1.853Zm-5.289-1.184a2.088,2.088,0,0,0,1.835-2.293,3.079,3.079,0,0,0-3.407-3.208H22.91v12.05h6.268s3.829.117,3.829-3.559C33.008,44.078,33.172,41.087,30.751,41.087Zm-5.078-3.36h3.507s.85,0,.85,1.255-.5,1.437-1.067,1.437H25.672ZM29,45.5H25.672V42.272h3.507s1.273-.012,1.267,1.659C30.445,45.339,29.5,45.485,29,45.5Zm6.515-9.2V37.78H40.49V36.3Z" transform="translate(-22.91 -35.587)" fill="#f1f2f2"/>
    </g>
  </g>
</svg>
