<svg xmlns="http://www.w3.org/2000/svg" width="34" height="34" viewBox="0 0 34 34">
  <g id="icon-javascript" transform="translate(1 1)">
    <rect id="Rectangle_1813" data-name="Rectangle 1813" width="34" height="34" transform="translate(-1 -1)" fill="red" opacity="0"/>
    <path id="Path_9" data-name="Path 9" d="M1.408,1.408h32v32h-32Z" transform="translate(-1.408 -1.408)" fill="#f0db4f"/>
    <path id="Path_10" data-name="Path 10" d="M55.28,68.049c-.234-1.46-1.186-2.686-4.006-3.829-.98-.45-2.072-.772-2.4-1.515a1.652,1.652,0,0,1-.058-.937,1.54,1.54,0,0,1,2.026-.87,2.229,2.229,0,0,1,1.3,1.208c1.381-.894,1.378-.888,2.342-1.5a5.988,5.988,0,0,0-.772-1.034A4.512,4.512,0,0,0,49.945,58.2L49,58.322a4.278,4.278,0,0,0-2.269,1.338,4.189,4.189,0,0,0,.76,5.965c1.816,1.363,4.484,1.673,4.824,2.948.332,1.56-1.147,2.065-2.616,1.886a3.429,3.429,0,0,1-2.336-1.776c-1.2.694-1.2.694-2.43,1.4a5.408,5.408,0,0,0,1.089,1.481c2.318,2.351,8.118,2.236,9.159-1.323a4.4,4.4,0,0,0,.1-2.193ZM43.3,58.389H40.3l-.012,7.738a12.658,12.658,0,0,1-.183,3.617,1.681,1.681,0,0,1-2.09.62,2.568,2.568,0,0,1-1.1-1.146,1.508,1.508,0,0,0-.17-.274l-2.433,1.49a4.808,4.808,0,0,0,1.764,2.02,5.809,5.809,0,0,0,4.277.526,3.777,3.777,0,0,0,2.415-1.892c.681-1.256.535-2.777.529-4.459C43.311,63.885,43.3,61.141,43.3,58.389Z" transform="translate(-25.9 -43.682)" fill="#323330"/>
  </g>
</svg>
