<svg xmlns="http://www.w3.org/2000/svg" width="34" height="34" viewBox="0 0 34 34">
  <g id="icon-linkedin" transform="translate(1 1)">
    <rect id="Rectangle_1815" data-name="Rectangle 1815" width="34" height="34" transform="translate(-1 -1)" fill="red" opacity="0"/>
    <ellipse id="Ellipse_11" data-name="Ellipse 11" cx="15.999" cy="15.999" rx="15.999" ry="15.999" transform="translate(0 0)" fill="#007ab9"/>
    <g id="Group_9" data-name="Group 9" transform="translate(7.72 6.836)">
      <path id="Path_6" data-name="Path 6" d="M44.907,34.419v6.6H41.083V34.861c0-1.545-.552-2.6-1.937-2.6a2.092,2.092,0,0,0-1.962,1.4,2.618,2.618,0,0,0-.127.932v6.424H33.233s.051-10.423,0-11.5h3.825v1.63c-.008.013-.019.025-.025.038h.025v-.038a3.8,3.8,0,0,1,3.447-1.9c2.516,0,4.4,1.644,4.4,5.176ZM29.232,23.969a1.993,1.993,0,1,0-.05,3.975h.025a1.994,1.994,0,1,0,.025-3.975ZM27.3,41.016h3.823v-11.5H27.3Z" transform="translate(-27.068 -23.969)" fill="#f1f2f2"/>
    </g>
  </g>
</svg>
