<?xml version="1.0" encoding="utf-8"?>
<!-- Generator: Adobe Illustrator 26.2.1, SVG Export Plug-In . SVG Version: 6.00 Build 0)  -->
<svg version="1.1" id="Layer_2" xmlns="http://www.w3.org/2000/svg" xmlns:xlink="http://www.w3.org/1999/xlink" x="0px" y="0px"
	 viewBox="0 0 34 34" style="enable-background:new 0 0 34 34;" xml:space="preserve">
<path d="M33.5,26.1c-1,0.4-2.1,0-2.6-1l-4.8-6.6l-0.7-0.9L20,25.1c-0.5,0.9-1.5,1.3-2.5,1l7.1-9.5L18,8c1-0.4,2.1,0,2.6,0.9l4.9,6.7
	l5-6.6C31,8,32,7.6,33,8l-2.6,3.4l-3.5,4.5c-0.4,0.3-0.4,0.9-0.1,1.3c0,0,0,0.1,0.1,0.1L33.5,26.1L33.5,26.1z M0.5,16.5L1,13.6
	c1.6-5.7,8.1-8,12.5-4.5c2.6,2.1,3.3,5,3.1,8.2H2c-0.2,5.9,4,9.4,9.4,7.6c1.8-0.6,3.1-2.1,3.6-4c0.3-0.9,0.8-1.1,1.6-0.8
	c-0.3,2.3-1.6,4.3-3.6,5.5c-3.3,1.8-7.3,1.3-10.1-1.3C1.6,22.8,0.8,21,0.6,19c0-0.3-0.1-0.6-0.2-0.9C0.5,17.5,0.5,17,0.5,16.5
	L0.5,16.5z M2,16.1h13.3c-0.1-4.2-2.8-7.3-6.3-7.3C5,8.7,2.2,11.7,2,16.1L2,16.1z"/>
</svg>
