<svg xmlns="http://www.w3.org/2000/svg" width="34" height="34" viewBox="0 0 34 34">
  <g id="icon-vscode" transform="translate(1 1)">
    <rect id="Rectangle_1825" data-name="Rectangle 1825" width="34" height="34" transform="translate(-1 -1)" fill="red" opacity="0"/>
    <path id="Path_19" data-name="Path 19" d="M2.779,34.683s-.779-.564.157-1.315l2.178-1.953A.923.923,0,0,1,6.4,31.33L26.505,46.59v7.318s-.01,1.149-1.481,1.023Zm0,0" transform="translate(-2.475 -23.617)" fill="#2489ca"/>
    <path id="Path_20" data-name="Path 20" d="M8.156,63.379,2.973,68.1s-.532.4,0,1.107L5.379,71.4s.572.616,1.417-.084l5.494-4.177Zm0,0" transform="translate(-2.669 -47.597)" fill="#1070b3"/>
    <path id="Path_21" data-name="Path 21" d="M44.845,18.616,54.35,11.34l-.061-7.279s-.406-1.589-1.76-.761L39.879,14.84Zm0,0" transform="translate(-30.258 -2.794)" fill="#0877b9"/>
    <path id="Path_22" data-name="Path 22" d="M89.334,33.345a1.3,1.3,0,0,0,1.221.381l7.407-3.658a1.569,1.569,0,0,0,.816-1.452V6.766A1.459,1.459,0,0,0,97.8,5.473l-6.42-3.1a1.779,1.779,0,0,0-2.322.157s1.181-.853,1.76.761v28.89a1.315,1.315,0,0,1-.127.569c-.169.343-.537.661-1.416.528Zm0,0" transform="translate(-66.785 -2.022)" fill="#3c99d4"/>
  </g>
</svg>
