<?xml version="1.0" encoding="utf-8"?>
<!-- Generator: Adobe Illustrator 26.2.1, SVG Export Plug-In . SVG Version: 6.00 Build 0)  -->
<svg version="1.1" id="Layer_2" xmlns="http://www.w3.org/2000/svg" xmlns:xlink="http://www.w3.org/1999/xlink" x="0px" y="0px"
	 viewBox="0 0 34 34" style="enable-background:new 0 0 34 34;" xml:space="preserve">
<style type="text/css">
	.st0{fill:#599636;}
	.st1{fill:#6CAC48;}
	.st2{fill:#C2BFBF;}
</style>
<g>
	<path class="st0" d="M16.5,1.3l0.8,1.6c0.2,0.3,0.4,0.5,0.6,0.8c0.7,0.7,1.4,1.4,2,2.2c1.4,1.9,2.4,3.9,3,6.1
		c0.4,1.4,0.6,2.8,0.6,4.2c0.1,4.2-1.4,7.8-4.3,10.9c-0.5,0.5-1,0.9-1.5,1.3c-0.3,0-0.4-0.2-0.5-0.4c-0.2-0.4-0.4-0.8-0.4-1.2
		c-0.1-0.5-0.2-1-0.1-1.5v-0.2C16.7,24.9,16.4,1.4,16.5,1.3L16.5,1.3z"/>
	<path class="st1" d="M16.5,1.3c0-0.1-0.1,0-0.1,0c0,0.3-0.1,0.6-0.3,0.9c-0.2,0.3-0.5,0.5-0.7,0.7c-1.5,1.3-2.7,2.9-3.7,4.7
		c-1.3,2.4-1.9,4.9-2.1,7.6c-0.1,1,0.3,4.4,0.6,5.4c0.8,2.6,2.3,4.8,4.3,6.7c0.5,0.5,1,0.9,1.5,1.3c0.2,0,0.2-0.1,0.2-0.2
		c0.1-0.2,0.1-0.4,0.2-0.7l0.3-2.6L16.5,1.3z"/>
	<path class="st2" d="M17.3,29.4c0-0.4,0.2-0.7,0.4-1c-0.2-0.1-0.4-0.3-0.5-0.4c-0.1-0.2-0.2-0.4-0.3-0.6c-0.2-0.7-0.3-1.5-0.4-2.2
		v-0.4c-0.1,0.1-0.1,0.6-0.1,0.7c0,0.8-0.2,1.5-0.3,2.3c-0.1,0.3-0.1,0.6-0.3,0.9c0,0,0,0.1,0,0.1c0.3,0.9,0.4,1.8,0.4,2.8v0.3
		c0,0.4,0,0.3,0.3,0.5c0.1,0.1,0.3,0.1,0.4,0.2c0.1,0,0.1-0.1,0.1-0.2l-0.1-0.6v-1.6C17.2,29.9,17.3,29.7,17.3,29.4L17.3,29.4z"/>
</g>
</svg>
