<svg xmlns="http://www.w3.org/2000/svg" width="34" height="34" viewBox="0 0 34 34">
  <g id="icon-git" transform="translate(1 1)">
    <rect id="Rectangle_1820" data-name="Rectangle 1820" width="34" height="34" transform="translate(-1 -1)" fill="red" opacity="0"/>
    <path id="Path_87" data-name="Path 87" d="M6902.759,2621.563l-5.555,5.574,5.006,19.417,6.2.827,8.93-11.824-12.734-12.982Z" transform="translate(-6889.223 -2620.012)" fill="#fff"/>
    <path id="git-icon" d="M32.279,15.458,18.308,1.487a2.061,2.061,0,0,0-2.914,0l-2.9,2.9,3.68,3.68a2.447,2.447,0,0,1,3.1,3.12l3.547,3.547a2.449,2.449,0,1,1-1.469,1.382L18.042,12.81v8.705a2.447,2.447,0,1,1-2.016-.071V12.658a2.454,2.454,0,0,1-1.331-3.216L11.067,5.814l-9.58,9.58a2.062,2.062,0,0,0,0,2.915L15.458,32.28a2.062,2.062,0,0,0,2.915,0L32.279,18.374a2.062,2.062,0,0,0,0-2.915Z" transform="translate(-0.883 -0.884)" fill="#f34f29"/>
  </g>
</svg>
