<svg xmlns="http://www.w3.org/2000/svg" xmlns:xlink="http://www.w3.org/1999/xlink" width="34" height="34" viewBox="0 0 34 34">
  <defs>
    <linearGradient id="linear-gradient" x1="0.5" y1="0.121" x2="0.5" y2="0.894" gradientUnits="objectBoundingBox">
      <stop offset="0" stop-color="#bf0000"/>
      <stop offset="1" stop-color="#8f0000"/>
    </linearGradient>
  </defs>
  <g id="icon-filezilla" transform="translate(1 1)">
    <rect id="Rectangle_1818" data-name="Rectangle 1818" width="34" height="34" transform="translate(-1 -1)" fill="red" opacity="0"/>
    <path id="Path_89" data-name="Path 89" d="M6983.42,2608.189v26.561H6957v-26.561Z" transform="translate(-6954.95 -2604.868)" fill="#fff"/>
    <path id="filezilla-icon" d="M1.071,0A1.079,1.079,0,0,1,.758.758,1.079,1.079,0,0,1,0,1.071V2.484A1.072,1.072,0,0,1,1.071,3.555,1.072,1.072,0,0,1,0,4.627V6.039A1.073,1.073,0,0,1,1.071,7.11,1.074,1.074,0,0,1,0,8.182V9.594a1.072,1.072,0,0,1,1.071,1.072A1.072,1.072,0,0,1,0,11.738v1.413a1.072,1.072,0,0,1,1.071,1.071A1.072,1.072,0,0,1,0,15.294v1.413a1.071,1.071,0,0,1,1.071,1.07A1.072,1.072,0,0,1,0,18.849v1.412a1.072,1.072,0,0,1,1.071,1.071A1.072,1.072,0,0,1,0,22.4v1.413a1.072,1.072,0,0,1,1.071,1.071A1.072,1.072,0,0,1,0,25.959v1.413a1.072,1.072,0,0,1,1.071,1.071A1.072,1.072,0,0,1,0,29.515v1.413a1.079,1.079,0,0,1,.758.313A1.079,1.079,0,0,1,1.071,32H2.484a1.071,1.071,0,0,1,2.143,0H6.039a1.072,1.072,0,0,1,2.143,0H9.594a1.071,1.071,0,0,1,2.143,0H13.15a1.071,1.071,0,0,1,2.143,0h1.413a1.071,1.071,0,0,1,2.143,0h1.413A1.071,1.071,0,0,1,22.4,32h1.412a1.072,1.072,0,0,1,2.144,0h1.411a1.071,1.071,0,0,1,2.142,0h1.414A1.07,1.07,0,0,1,32,30.928V29.516a1.072,1.072,0,0,1,0-2.143V25.961a1.072,1.072,0,0,1,0-2.143V22.4a1.071,1.071,0,0,1,0-2.142V18.849a1.071,1.071,0,0,1,0-2.143V15.295a1.071,1.071,0,0,1,0-2.143V11.739A1.072,1.072,0,0,1,32,9.6V8.182A1.071,1.071,0,0,1,32,6.04V4.628a1.071,1.071,0,0,1,0-2.143V1.071a1.079,1.079,0,0,1-.758-.313A1.079,1.079,0,0,1,30.928,0H29.515a1.072,1.072,0,0,1-1.071,1.071A1.072,1.072,0,0,1,27.372,0H25.959a1.072,1.072,0,0,1-1.071,1.071A1.072,1.072,0,0,1,23.817,0H22.405a1.072,1.072,0,0,1-1.071,1.071A1.075,1.075,0,0,1,20.261,0H18.849a1.072,1.072,0,0,1-1.071,1.071A1.072,1.072,0,0,1,16.707,0H15.294a1.072,1.072,0,0,1-1.071,1.071A1.072,1.072,0,0,1,13.151,0H11.738a1.072,1.072,0,0,1-1.071,1.071A1.072,1.072,0,0,1,9.6,0H8.182A1.072,1.072,0,0,1,7.111,1.071,1.072,1.072,0,0,1,6.04,0H4.628A1.073,1.073,0,0,1,3.557,1.071,1.074,1.074,0,0,1,2.484,0Zm7.69,4.709H22.75l-.892,4.2H12.125l-.833,3.9H27.259l-.684,2.8-8.538,8.3a15,15,0,0,0,2.32.3,16.342,16.342,0,0,0,5.719-1.221l-.78,3.661A10.124,10.124,0,0,1,20.357,27.8c-1.457,0-2.856-.476-4.285-.476a5.233,5.233,0,0,0-2.679.535l-1.548-2.737L20.654,16.4H10.517L8.583,25.482H4.357l4.4-20.773Z" transform="translate(0)" fill="url(#linear-gradient)"/>
  </g>
</svg>
