<?xml version="1.0" encoding="utf-8"?>
<!-- Generator: Adobe Illustrator 26.2.1, SVG Export Plug-In . SVG Version: 6.00 Build 0)  -->
<svg width="34px" height="34px" version="1.1" id="Layer_2" xmlns="http://www.w3.org/2000/svg" xmlns:xlink="http://www.w3.org/1999/xlink" x="0px" y="0px"
	 viewBox="0 0 128 128" style="enable-background:new 0 0 128 128;" xml:space="preserve">
<style type="text/css">
	.st0{fill:#007ACC;}
	.st1{fill:#FFFFFF;}
</style>
<g>
	<path class="st0" d="M0,64v64h64h64V64V0H64H0V64z"/>
	<g>
		<path class="st1" d="M28.3,64.4l0,5.2h8.3h8.3v23.7V117h5.9h5.9V93.3V69.7H65h8.3v-5.1c0-2.8-0.1-5.2-0.1-5.3
			c-0.1-0.1-10.2-0.1-22.5-0.1l-22.4,0.1L28.3,64.4z"/>
		<path class="st1" d="M103.3,59c3.2,0.8,5.7,2.3,8,4.6c1.2,1.3,2.9,3.6,3.1,4.1c0,0.2-5.5,3.9-8.9,6c-0.1,0.1-0.6-0.4-1.2-1.3
			c-1.6-2.4-3.4-3.4-6-3.6c-3.9-0.3-6.4,1.8-6.4,5.2c0,1,0.1,1.6,0.5,2.4c0.9,1.8,2.4,2.8,7.4,5c9.2,3.9,13.1,6.5,15.5,10.2
			c2.7,4.1,3.3,10.7,1.5,15.6c-2,5.3-7.1,8.9-14.2,10.1c-2.2,0.4-7.4,0.3-9.7-0.1c-5.1-0.9-10-3.5-13-6.8c-1.2-1.3-3.5-4.7-3.3-4.9
			c0.1-0.1,0.6-0.4,1.2-0.8c0.6-0.3,2.7-1.6,4.8-2.7l3.7-2.1l0.8,1.1c1.1,1.6,3.4,3.9,4.9,4.7c4.1,2.2,9.7,1.8,12.4-0.6
			c1.2-1.1,1.7-2.2,1.7-3.8c0-1.5-0.2-2.1-1-3.2c-1-1.4-3-2.6-8.8-5.1c-6.6-2.8-9.4-4.6-12-7.4c-1.5-1.6-2.9-4.2-3.5-6.4
			c-0.5-1.8-0.6-6.3-0.2-8.2c1.4-6.4,6.2-10.8,13.1-12.1C95.8,58.3,101,58.5,103.3,59L103.3,59z"/>
	</g>
</g>
</svg>
