<svg xmlns="http://www.w3.org/2000/svg" width="34" height="34" viewBox="0 0 34 34">
  <g id="icon-sass" transform="translate(1 4.923)">
    <rect id="Rectangle_1817" data-name="Rectangle 1817" width="34" height="34" transform="translate(-1 -4.923)" fill="red" opacity="0"/>
    <path id="sass-icon" d="M1.219,26.979a1.411,1.411,0,0,0,.082.412,5.068,5.068,0,0,0,1.1,1.974A13.015,13.015,0,0,0,4.834,31.5c.762.547,1.539,1.083,2.3,1.626.131.093.255.2.4.315-.123.066-.225.125-.331.178A17.693,17.693,0,0,0,4.33,35.4,5.879,5.879,0,0,0,2.9,36.848a3.111,3.111,0,0,0-.361,3,1.769,1.769,0,0,0,.6.778.892.892,0,0,0,.3.153c.27.063.544.105.817.155H5.03a4.809,4.809,0,0,0,2.336-.854A5.126,5.126,0,0,0,9.524,37a5.437,5.437,0,0,0-.032-2.842q-.039-.131-.09-.258c-.033-.085-.072-.167-.118-.273l1.752-1.008.026.022c-.032.1-.066.208-.095.313a7.1,7.1,0,0,0-.3,2.324,4.459,4.459,0,0,0,.78,2.331,1.13,1.13,0,0,0,1.77.019,4.081,4.081,0,0,0,.4-.64c.286-.59.55-1.19.823-1.787l.048-.109c-.02.282-.043.53-.053.779a2.967,2.967,0,0,0,.139,1.142.788.788,0,0,0,.668.593.839.839,0,0,0,.626-.228,2.646,2.646,0,0,0,.686-.815c.484-.89.982-1.774,1.421-2.686.475-.987.89-2,1.332-3.005l.073-.178c.1.41.177.811.311,1.19a11.251,11.251,0,0,0,.557,1.289.386.386,0,0,1-.05.491c-.575.693-1.14,1.395-1.706,2.1a4.708,4.708,0,0,0-.354.481.943.943,0,0,0-.122.348.443.443,0,0,0,.352.5,2.462,2.462,0,0,0,.69.049,4.042,4.042,0,0,0,2.14-.8,2.243,2.243,0,0,0,.886-2.421,5.625,5.625,0,0,0-.241-.783.289.289,0,0,1,.031-.305,24.938,24.938,0,0,0,1.738-2.948.608.608,0,0,1,.078-.123,7.656,7.656,0,0,0,.879,2.5c-.232.224-.463.427-.671.651a4.487,4.487,0,0,0-1.064,1.681,1.986,1.986,0,0,0-.118.868.731.731,0,0,0,.9.664,4.1,4.1,0,0,0,2.45-1.51,1.985,1.985,0,0,0,.28-1.813c-.048-.175-.1-.348-.166-.549.242-.075.479-.165.723-.221a6.409,6.409,0,0,1,3.747.219,2.828,2.828,0,0,1,1.633,1.42,1.638,1.638,0,0,1-.625,2.223,1.393,1.393,0,0,0-.225.154.221.221,0,0,0-.052.171c.005.031.088.071.136.07a1.242,1.242,0,0,0,.691-.286A2.128,2.128,0,0,0,33.2,34.5l.016-.048-.02-.415c-.008-.024.006-.048,0-.066a3.258,3.258,0,0,0-1.329-2.214,4.846,4.846,0,0,0-2.867-.965,6.474,6.474,0,0,0-2.489.383c-.229.083-.455.181-.685.273-.031-.056-.064-.109-.091-.165a4.658,4.658,0,0,1-.585-1.5,3.356,3.356,0,0,1-.006-1.176c.09-.374.207-.742.318-1.112a.271.271,0,0,0-.165-.382.727.727,0,0,0-.2-.066,3.085,3.085,0,0,0-1.318.1.378.378,0,0,0-.3.3c-.019.1-.059.19-.086.286a7.152,7.152,0,0,1-.375,1.184c-.457.952-.979,1.868-1.513,2.777-.058.1-.119.194-.192.313a4.108,4.108,0,0,1-.448-1.158,3.553,3.553,0,0,1-.006-1.4c.086-.346.2-.685.3-1.026a.238.238,0,0,0-.12-.333A.707.707,0,0,0,20.807,28a2.967,2.967,0,0,0-1.365.112.369.369,0,0,0-.253.277,10.684,10.684,0,0,1-.4,1.253c-.707,1.621-1.434,3.233-2.161,4.846-.152.337-.329.662-.5.989a2.3,2.3,0,0,1-.161.234.191.191,0,0,1-.06-.122,3.356,3.356,0,0,1,.016-.621q.182-.909.4-1.809c.12-.5.259-.987.392-1.48a.464.464,0,0,0-.073-.458.684.684,0,0,0-.862-.1l-.109.062.021-.176a2.74,2.74,0,0,0-.041-1.124.894.894,0,0,0-.939-.714,2.018,2.018,0,0,0-.666.127,5.036,5.036,0,0,0-2.112,1.674.661.661,0,0,1-.193.167c-.737.409-1.477.812-2.216,1.218L8.7,32.8c-.221-.211-.421-.429-.649-.614-.7-.567-1.4-1.12-2.1-1.68a8.281,8.281,0,0,1-1.681-1.672,2.993,2.993,0,0,1-.584-1.63,3.825,3.825,0,0,1,.584-2.131,8.175,8.175,0,0,1,1.94-2.122A17.97,17.97,0,0,1,8.76,21.262a19.24,19.24,0,0,1,3.911-1.726,10.812,10.812,0,0,1,4.324-.492,4.442,4.442,0,0,1,1.663.483,1.716,1.716,0,0,1,.874.947,2.368,2.368,0,0,1,.041,1.326,5.063,5.063,0,0,1-1.324,2.306,8.948,8.948,0,0,1-3.657,2.317,10.061,10.061,0,0,1-2.489.531,4.687,4.687,0,0,1-2.035-.245,2.647,2.647,0,0,1-1.121-.761c-.055-.064-.124-.133-.226-.073a.193.193,0,0,0-.084.25,2.444,2.444,0,0,0,.194.468,2.668,2.668,0,0,0,.888.841,4.343,4.343,0,0,0,2.207.606,11.1,11.1,0,0,0,3.48-.443,8.537,8.537,0,0,0,4.176-2.519A6.414,6.414,0,0,0,21.345,21.4a3.557,3.557,0,0,0-.332-2.025,3.66,3.66,0,0,0-1.6-1.561A6.76,6.76,0,0,0,16.273,17h-1.1a11.37,11.37,0,0,0-3.859.834,26.512,26.512,0,0,0-2.77,1.2,17.907,17.907,0,0,0-5.279,3.78,7.884,7.884,0,0,0-1.741,2.75q-.165.47-.283.955m7.1,9.178a4.051,4.051,0,0,1-1.442,2.8,3.279,3.279,0,0,1-1.649.823,1.21,1.21,0,0,1-.687-.048.7.7,0,0,1-.395-.717,2.6,2.6,0,0,1,.388-1.322A4.725,4.725,0,0,1,5.76,35.91a18.517,18.517,0,0,1,2.362-1.592l.062-.025a4.145,4.145,0,0,1,.152,1.4Zm6.412-4.939a8.575,8.575,0,0,1-.241,1.078A31.774,31.774,0,0,1,13.161,35.4a6.144,6.144,0,0,1-.35.616.431.431,0,0,1-.072.085c-.147.146-.287.138-.361-.052a4.013,4.013,0,0,1-.186-.692,3.668,3.668,0,0,1-.033-.483,6.06,6.06,0,0,1,.952-3.155,2.95,2.95,0,0,1,.917-1.033,1.6,1.6,0,0,1,.406-.18c.217-.061.35.039.314.256Zm4.374,5.573,1.572-1.836C20.76,35.177,19.6,36.537,19.122,36.331ZM24.144,35.1c-.111.064-.232.11-.346.168s-.139,0-.142-.09a.608.608,0,0,1,.024-.184,3.952,3.952,0,0,1,1.184-1.908l.041-.021a1.684,1.684,0,0,1-.761,2.034Z" transform="translate(-1.219 -17)" fill="#cb6699" fill-rule="evenodd"/>
  </g>
</svg>
