<svg xmlns="http://www.w3.org/2000/svg" width="34" height="34" viewBox="0 0 34 34">
  <g id="icon-css3" transform="translate(2.961 1)">
    <rect id="Rectangle_1822" data-name="Rectangle 1822" width="34" height="34" transform="translate(-2.961 -1)" fill="red" opacity="0"/>
    <rect id="Rectangle_15" data-name="Rectangle 15" width="20.607" height="25.439" transform="translate(3.741 2.388)" fill="#fff"/>
    <path id="css3-plain" d="M8.76,1l2.572,28.788L22.872,33l11.572-3.22L37.018,1ZM31.675,7.6l-.856,9.59,0,.052,0,.119h0l-.608,6.706-.067.6-7.254,2h0l-.006,0-7.241-2.012-.49-5.544H18.7l.252,2.819,3.935,1.063v0h0l3.95-1.078.417-4.591H19l-.071-.776-.161-1.818-.085-.976H27.57l.323-3.57H14.356l-.071-.776-.161-1.819-.085-.976H31.76l-.085.985Z" transform="translate(-8.76 -1)" fill="#1572b6"/>
  </g>
</svg>
